<svg xmlns="http://www.w3.org/2000/svg" width="978" height="1072" viewBox="0 0 978 1072">
<g>
<path d="M 618.67 600.59 C619.14,601.80 600.34,602.00 488.11,602.00 C416.00,602.00 356.96,601.89 356.92,601.75 C356.87,601.61 356.72,600.46 356.58,599.20 C356.44,597.93 354.61,595.46 352.52,593.70 C346.32,588.49 338.77,580.84 334.58,575.49 C332.43,572.75 330.17,570.05 329.56,569.50 C326.24,566.50 312.00,541.54 312.00,538.70 C312.00,537.90 311.33,536.68 310.50,536.00 C309.67,535.32 309.00,533.38 309.00,531.71 C309.00,530.03 308.33,527.91 307.50,527.00 C306.68,526.09 305.61,523.25 305.13,520.68 C304.65,518.12 303.69,515.33 302.99,514.49 C302.30,513.65 301.53,510.44 301.28,507.36 C301.04,504.28 299.92,500.00 298.80,497.84 C297.26,494.89 296.92,492.93 297.40,489.91 C298.28,484.40 296.27,473.67 293.88,471.10 C292.77,469.92 292.44,469.00 293.11,469.00 C293.96,469.00 294.12,467.18 293.68,462.50 C293.32,458.58 293.46,456.00 294.04,456.00 C294.57,456.00 295.00,455.33 295.00,454.50 C295.00,453.67 294.66,453.00 294.25,453.00 C293.09,453.00 293.33,411.64 294.50,410.67 C295.15,410.14 295.08,409.68 294.29,409.36 C292.70,408.70 293.62,396.96 295.69,391.50 C296.52,389.30 297.30,383.68 297.40,379.00 C297.55,372.87 298.09,369.77 299.34,367.87 C300.37,366.30 301.19,362.81 301.37,359.22 C301.55,355.50 302.25,352.61 303.19,351.67 C304.02,350.83 304.98,348.18 305.31,345.78 C305.64,343.38 306.60,340.08 307.45,338.46 C308.29,336.83 308.99,334.49 308.99,333.25 C309.00,332.01 309.90,329.31 311.00,327.26 C312.10,325.21 313.00,322.79 313.00,321.89 C313.00,320.98 313.67,319.68 314.50,319.00 C315.33,318.32 316.00,316.79 316.00,315.60 C316.00,314.41 316.63,312.54 317.41,311.44 C318.62,309.70 321.50,304.46 326.90,294.16 C328.99,290.16 335.19,280.64 336.43,279.50 C337.03,278.95 338.25,277.38 339.12,276.00 C340.00,274.62 344.62,269.12 349.38,263.77 C354.15,258.42 358.04,253.70 358.02,253.27 C358.01,252.85 358.34,252.49 358.75,252.48 C360.20,252.46 362.03,250.85 361.53,250.04 C360.76,248.80 363.75,246.73 365.11,247.57 C365.84,248.02 366.05,247.89 365.64,247.23 C365.27,246.63 365.79,245.88 366.79,245.57 C367.79,245.25 370.48,243.19 372.77,240.99 C375.05,238.80 377.39,237.00 377.96,237.00 C378.53,237.00 379.00,236.55 379.00,235.99 C379.00,235.44 380.80,234.26 382.99,233.39 C385.43,232.41 386.73,231.34 386.33,230.64 C385.97,230.01 386.01,229.80 386.42,230.17 C387.11,230.78 405.85,221.67 407.00,220.16 C407.27,219.80 408.40,219.37 409.50,219.21 C412.71,218.73 417.01,216.83 416.55,216.08 C416.32,215.71 417.77,215.29 419.77,215.16 C421.77,215.02 424.03,214.39 424.80,213.75 C425.57,213.11 427.16,212.47 428.35,212.31 C434.49,211.51 436.91,210.82 437.95,209.56 C438.62,208.75 440.98,208.17 443.58,208.17 C452.09,208.17 455.95,207.05 456.61,204.41 C457.07,202.58 457.89,202.00 460.03,202.00 C461.57,202.00 462.98,202.41 463.17,202.91 C463.61,204.13 473.99,205.23 475.39,204.20 C476.00,203.75 483.02,203.70 491.00,204.08 C506.46,204.81 512.30,204.52 512.83,202.96 C513.54,200.93 518.03,201.98 519.15,204.43 C519.94,206.17 521.36,207.05 524.09,207.52 C526.20,207.87 528.30,207.93 528.76,207.65 C529.22,207.36 530.21,207.51 530.96,207.98 C531.72,208.44 533.36,208.43 534.61,207.96 C536.42,207.27 537.02,207.48 537.48,208.94 C537.89,210.21 539.40,210.98 542.29,211.39 C548.99,212.34 549.75,212.54 551.35,213.87 C552.18,214.56 554.34,215.17 556.14,215.22 C557.95,215.27 560.33,216.16 561.44,217.20 C562.56,218.23 564.37,219.01 565.48,218.93 C568.94,218.67 570.14,218.97 569.54,219.93 C568.85,221.05 572.42,222.50 576.81,222.88 C577.53,222.95 577.87,223.40 577.57,223.88 C577.01,224.80 582.86,227.68 584.32,227.21 C584.78,227.07 584.86,227.41 584.52,227.98 C584.17,228.54 584.29,229.00 584.79,229.00 C585.28,229.00 588.57,230.87 592.09,233.16 C595.62,235.44 599.04,237.32 599.71,237.32 C600.37,237.33 600.72,237.65 600.48,238.03 C600.24,238.42 600.98,239.58 602.13,240.62 C603.27,241.65 604.28,242.36 604.35,242.19 C604.43,242.01 605.28,242.17 606.24,242.54 C607.20,242.91 607.74,243.61 607.44,244.10 C607.13,244.60 607.34,245.00 607.91,245.00 C608.47,245.00 610.48,246.54 612.37,248.43 C614.26,250.32 616.07,251.60 616.40,251.27 C616.73,250.94 617.00,251.13 617.00,251.69 C617.00,253.09 623.63,260.04 624.31,259.36 C624.61,259.06 625.54,260.09 626.37,261.66 C627.21,263.22 629.59,266.30 631.67,268.50 C633.75,270.70 635.46,272.73 635.48,273.00 C635.50,273.41 638.03,276.95 642.26,282.50 C644.86,285.89 647.83,291.00 647.22,291.02 C646.82,291.02 647.02,291.36 647.65,291.77 C649.14,292.72 655.10,303.57 654.47,304.20 C654.20,304.46 654.89,305.50 655.99,306.49 C657.10,307.49 658.00,309.37 658.00,310.65 C658.00,311.94 658.39,313.00 658.86,313.00 C659.34,313.00 660.52,315.14 661.50,317.75 C662.47,320.36 663.65,322.93 664.13,323.45 C664.61,323.97 665.00,325.11 665.00,325.99 C665.00,326.86 665.84,329.22 666.86,331.23 C667.89,333.24 669.03,336.80 669.41,339.14 C669.78,341.48 670.61,344.03 671.24,344.79 C671.87,345.55 672.56,348.27 672.78,350.84 C673.21,356.02 675.24,358.98 678.40,359.03 C680.33,359.06 680.36,359.17 678.80,360.35 C677.87,361.06 676.90,362.76 676.66,364.12 C676.09,367.23 677.97,377.00 679.13,377.00 C679.61,377.00 680.00,377.64 680.00,378.42 C680.00,379.20 680.43,379.98 680.96,380.17 C681.56,380.38 681.56,381.96 680.95,384.50 C679.87,389.01 681.66,410.00 683.13,410.00 C683.61,410.00 684.00,411.58 684.00,413.50 C684.00,415.94 684.45,417.00 685.50,417.00 C686.33,417.00 687.00,417.45 687.00,418.00 C687.00,418.55 686.33,419.00 685.50,419.00 C684.22,419.00 684.00,421.61 684.00,436.50 C684.00,446.12 683.61,454.00 683.13,454.00 C681.98,454.00 680.74,465.91 680.54,478.82 C680.44,485.52 679.97,489.40 679.20,489.87 C677.66,490.83 675.94,500.02 676.72,503.10 C677.05,504.42 677.81,505.83 678.41,506.23 C679.08,506.68 678.83,506.98 677.77,506.98 C675.36,507.01 673.21,510.76 672.88,515.50 C672.73,517.70 671.80,521.07 670.80,522.99 C669.81,524.90 669.00,526.98 669.00,527.61 C669.00,530.49 656.16,557.00 654.77,557.00 C654.35,557.00 654.00,557.48 654.00,558.07 C654.00,559.41 648.51,567.63 645.26,571.16 C643.91,572.62 642.85,574.08 642.90,574.41 C643.20,576.21 642.90,577.06 642.13,576.58 C641.28,576.06 637.47,579.59 637.53,580.85 C637.58,581.84 627.73,592.00 626.73,592.00 C625.40,592.00 623.01,594.68 623.71,595.38 C624.05,595.72 623.73,596.00 623.00,596.00 C620.92,596.00 618.07,599.03 618.67,600.59 ZM 531.00 870.15 C531.00,870.62 511.82,871.00 488.37,871.00 L 445.74 871.00 L 446.52 866.75 C446.95,864.41 447.26,861.38 447.20,860.00 C447.15,858.62 447.79,856.00 448.64,854.16 C449.67,851.92 450.27,847.05 450.45,839.31 C450.60,832.98 451.17,827.50 451.72,827.15 C452.27,826.79 453.26,822.80 453.91,818.28 C455.08,810.22 454.64,803.52 452.89,802.43 C451.62,801.65 451.79,795.00 453.07,795.00 C456.04,795.00 457.10,791.85 457.52,781.77 C457.75,776.12 457.99,771.50 458.05,771.50 C458.11,771.50 458.37,735.95 458.63,692.50 C458.89,649.05 459.29,612.94 459.52,612.25 C459.84,611.29 466.41,611.00 487.86,611.00 C512.84,611.00 515.85,611.17 516.42,612.64 C516.76,613.55 517.01,647.78 516.95,688.71 C516.89,738.20 517.21,763.54 517.89,764.36 C518.45,765.04 519.21,767.46 519.57,769.72 C520.04,772.67 520.63,773.70 521.62,773.32 C522.58,772.95 523.00,773.58 523.00,775.39 C523.00,776.95 522.44,778.00 521.61,778.00 C519.78,778.00 519.04,789.68 520.19,800.34 C521.10,808.84 522.28,811.00 526.00,811.00 C526.55,811.00 527.00,812.35 527.00,814.00 C527.00,815.88 526.49,817.00 525.63,817.00 C524.80,817.00 524.00,818.59 523.62,820.99 C522.90,825.51 524.73,839.19 526.17,840.10 C526.69,840.42 527.29,845.72 527.50,851.87 C527.75,859.33 528.39,864.08 529.44,866.17 C530.30,867.90 531.00,869.69 531.00,870.15 ZM 564.42 500.69 C565.95,502.44 577.76,502.39 579.52,500.62 C580.28,499.86 580.64,498.97 580.31,498.64 C579.98,498.32 580.50,497.75 581.46,497.38 C582.47,496.99 583.54,497.26 584.01,498.01 C584.45,498.72 586.14,499.27 587.77,499.23 C591.31,499.12 602.81,494.46 605.20,492.15 C608.68,488.78 610.51,487.46 613.73,486.00 C618.07,484.03 630.00,472.17 630.00,469.83 C630.00,468.82 630.46,468.00 631.02,468.00 C631.58,468.00 632.78,466.42 633.70,464.50 C634.62,462.58 635.69,461.00 636.07,461.00 C636.46,461.00 637.09,459.36 637.46,457.35 C637.84,455.35 638.80,452.71 639.60,451.49 C641.41,448.72 641.86,437.79 640.18,437.23 C639.53,437.01 639.00,435.94 639.00,434.86 C639.00,433.77 639.45,433.16 640.00,433.50 C640.59,433.87 640.99,432.76 640.98,430.81 C640.97,428.30 640.73,427.86 640.00,429.00 C639.16,430.30 639.03,430.27 639.02,428.83 C639.01,427.92 639.56,426.98 640.25,426.75 C641.12,426.45 641.42,424.26 641.24,419.47 C641.05,414.12 640.53,412.13 638.89,410.38 C637.74,409.15 637.05,407.73 637.37,407.22 C638.05,406.11 633.04,395.84 631.25,394.70 C630.56,394.26 630.00,393.13 630.00,392.18 C630.00,389.25 615.25,375.00 612.22,375.00 C611.75,375.00 610.37,373.86 609.15,372.46 C607.94,371.06 606.44,370.23 605.82,370.61 C605.18,371.00 604.97,370.86 605.32,370.29 C606.06,369.09 595.29,364.46 589.50,363.49 C587.30,363.12 584.90,362.32 584.16,361.71 C581.97,359.91 563.34,359.77 559.92,361.54 C558.33,362.36 554.94,363.32 552.38,363.67 C547.10,364.40 535.81,370.03 531.87,373.91 C527.94,377.79 526.23,379.00 524.72,379.00 C523.96,379.00 522.26,380.20 520.92,381.66 C519.59,383.12 519.17,383.98 520.00,383.56 C520.83,383.14 519.98,384.19 518.11,385.90 C516.25,387.60 515.10,389.00 515.56,389.00 C516.01,389.00 515.65,389.56 514.75,390.25 C512.39,392.05 505.39,404.88 504.51,409.00 C504.10,410.92 503.26,413.13 502.65,413.89 C502.00,414.69 501.66,417.87 501.84,421.39 C502.21,428.48 502.21,432.01 501.82,441.12 C501.62,445.75 501.97,448.26 502.98,449.47 C504.43,451.23 504.90,452.70 505.29,456.75 C505.40,457.99 505.78,459.00 506.13,459.00 C506.48,459.00 507.93,461.36 509.35,464.25 C510.77,467.14 513.18,471.00 514.72,472.83 C519.71,478.81 527.21,486.54 526.52,485.00 C525.93,483.67 526.00,483.67 527.20,485.00 C528.91,486.90 531.45,488.53 536.50,490.94 C538.70,492.00 540.05,492.90 539.50,492.95 C538.44,493.05 548.68,497.57 553.18,498.98 C555.03,499.56 556.42,499.40 557.68,498.44 C559.98,496.70 564.32,496.55 563.76,498.23 C563.53,498.90 563.83,500.01 564.42,500.69 ZM 537.49 650.92 C536.66,651.79 535.10,653.62 534.02,655.00 L 532.07 657.50 L 532.03 635.68 C532.01,618.07 532.28,613.58 533.43,612.43 C534.61,611.24 540.85,611.00 569.81,611.00 C603.93,611.00 604.78,611.05 605.29,613.00 C605.68,614.49 605.32,615.00 603.87,615.00 C601.71,615.00 597.16,617.56 595.27,619.84 C594.59,620.66 592.80,621.46 591.29,621.62 C589.78,621.78 588.03,622.60 587.42,623.44 C586.81,624.28 586.03,624.70 585.69,624.36 C585.36,624.03 583.20,624.74 580.89,625.94 C578.58,627.15 572.59,629.45 567.59,631.07 C562.59,632.68 557.83,634.29 557.00,634.65 C556.17,635.01 554.70,635.46 553.73,635.65 C552.75,635.84 550.33,637.46 548.35,639.25 C546.37,641.04 544.32,642.38 543.80,642.23 C543.28,642.07 543.12,642.39 543.46,642.93 C543.79,643.47 542.92,644.66 541.53,645.57 C540.14,646.48 539.00,647.70 539.00,648.28 C539.00,648.86 538.32,650.04 537.49,650.92 ZM 442.77 632.75 C443.04,653.79 442.57,656.85 439.88,651.75 C439.23,650.51 437.08,647.99 435.10,646.14 C433.12,644.29 432.40,643.38 433.50,644.12 C435.47,645.45 435.47,645.44 433.62,643.26 C432.58,642.04 431.39,641.26 430.97,641.52 C430.55,641.78 428.76,640.64 427.00,639.00 C425.23,637.35 423.05,635.99 422.14,635.97 C421.24,635.95 419.67,635.31 418.66,634.54 C417.64,633.77 414.94,632.83 412.66,632.45 C410.37,632.06 407.61,631.13 406.53,630.37 C405.44,629.62 402.83,629.00 400.72,629.00 C398.61,629.00 397.14,628.59 397.45,628.09 C397.96,627.26 379.89,617.79 377.50,617.63 C376.33,617.56 371.72,613.01 372.79,612.98 C373.18,612.98 372.83,612.53 372.00,611.99 C371.01,611.35 382.80,611.10 406.50,611.26 L 442.50 611.50 ZM 605.50 444.00 C604.74,445.23 602.00,445.33 602.00,444.13 C602.00,443.65 600.17,442.96 597.94,442.61 C594.42,442.04 593.68,441.46 592.40,438.23 C591.58,436.18 590.37,433.41 589.71,432.09 C588.75,430.18 588.76,429.58 589.75,429.25 C590.44,429.02 591.00,428.25 591.00,427.53 C591.00,425.64 593.18,421.80 595.61,419.37 C597.09,417.90 599.42,417.13 603.36,416.80 C608.67,416.36 609.52,416.72 609.12,419.25 C609.05,419.66 609.56,420.00 610.25,420.01 C612.08,420.02 615.35,425.89 616.08,430.50 C616.73,434.53 616.56,434.90 610.95,441.75 C610.38,442.44 609.07,443.00 608.02,443.00 C606.97,443.00 605.84,443.45 605.50,444.00 Z" fill="rgba(0,0,0,1)"/>
<path d="M 532.59 668.24 C531.63,670.85 530.43,673.24 529.92,673.55 C529.37,673.89 529.00,660.96 529.00,641.06 L 529.00 608.00 L 617.31 608.00 L 615.47 610.03 C609.35,616.80 586.08,628.89 566.49,635.48 C553.62,639.82 552.07,640.61 547.17,645.35 C541.59,650.75 535.55,660.23 532.59,668.24 ZM 448.00 640.50 C448.00,661.50 447.65,673.00 447.00,673.00 C446.45,673.00 446.00,672.54 446.00,671.98 C446.00,671.42 444.09,667.03 441.76,662.23 C438.71,655.97 435.56,651.45 430.63,646.25 C426.84,642.26 423.08,639.00 422.27,639.00 C420.41,639.00 405.54,633.98 397.04,630.47 C385.23,625.61 369.84,616.95 361.96,610.75 L 358.50 608.02 L 403.25 608.01 L 448.00 608.00 ZM 522.79 773.78 C522.58,773.24 522.19,773.10 521.62,773.32 C520.63,773.70 520.04,772.67 519.57,769.72 C519.21,767.46 518.45,765.04 517.89,764.36 C517.21,763.54 516.89,738.20 516.95,688.71 C517.01,647.78 516.76,613.55 516.42,612.64 C515.85,611.17 512.84,611.00 487.86,611.00 C466.41,611.00 459.84,611.29 459.52,612.25 C459.29,612.94 458.89,649.05 458.63,692.50 C458.37,735.95 458.11,771.50 458.05,771.50 C457.99,771.50 457.75,776.12 457.52,781.77 C457.10,791.85 456.04,795.00 453.07,795.00 C451.79,795.00 451.62,801.65 452.89,802.43 C454.64,803.52 455.08,810.22 453.91,818.28 C453.26,822.80 452.27,826.79 451.72,827.15 C451.17,827.50 450.60,832.98 450.45,839.31 C450.27,847.05 449.67,851.92 448.64,854.16 C447.79,856.00 447.15,858.62 447.20,860.00 C447.26,861.38 446.95,864.41 446.52,866.75 L 445.86 870.37 C444.39,870.26 443.59,870.14 443.51,870.01 C442.92,869.06 444.35,856.81 447.54,835.50 C448.36,830.00 449.46,821.22 449.97,816.00 C450.48,810.78 451.37,802.90 451.94,798.50 C454.18,781.33 454.73,753.64 454.23,682.25 L 453.72 608.00 L 522.08 608.00 L 522.00 684.25 C521.95,723.80 522.30,762.57 522.79,773.78 ZM 457.95 202.36 C457.26,202.72 456.88,203.36 456.61,204.41 C455.95,207.05 452.09,208.17 443.58,208.17 C440.98,208.17 438.62,208.75 437.95,209.56 C436.91,210.82 434.49,211.51 428.35,212.31 C427.16,212.47 425.57,213.11 424.80,213.75 C424.03,214.39 421.77,215.02 419.77,215.16 C417.77,215.29 416.32,215.71 416.55,216.08 C417.01,216.83 412.71,218.73 409.50,219.21 C408.40,219.37 407.27,219.80 407.00,220.16 C405.85,221.67 387.11,230.78 386.42,230.17 C386.01,229.80 385.97,230.01 386.33,230.64 C386.73,231.34 385.43,232.41 382.99,233.39 C380.80,234.26 379.00,235.44 379.00,235.99 C379.00,236.55 378.53,237.00 377.96,237.00 C377.39,237.00 375.05,238.80 372.77,240.99 C370.48,243.19 367.79,245.25 366.79,245.57 C365.79,245.88 365.27,246.63 365.64,247.23 C366.05,247.89 365.84,248.02 365.11,247.57 C363.75,246.73 360.76,248.80 361.53,250.04 C362.03,250.85 360.20,252.46 358.75,252.48 C358.34,252.49 358.01,252.85 358.02,253.27 C358.04,253.70 354.15,258.42 349.38,263.77 C344.62,269.12 340.00,274.62 339.12,276.00 C338.25,277.38 337.03,278.95 336.43,279.50 C335.19,280.64 328.99,290.16 326.90,294.16 C321.50,304.46 318.62,309.70 317.41,311.44 C316.63,312.54 316.00,314.41 316.00,315.60 C316.00,316.79 315.33,318.32 314.50,319.00 C313.67,319.68 313.00,320.98 313.00,321.89 C313.00,322.79 312.10,325.21 311.00,327.26 C309.90,329.31 309.00,332.01 308.99,333.25 C308.99,334.49 308.29,336.83 307.45,338.46 C306.60,340.08 305.64,343.38 305.31,345.78 C304.98,348.18 304.02,350.83 303.19,351.67 C302.25,352.61 301.55,355.50 301.37,359.22 C301.19,362.81 300.37,366.30 299.34,367.87 C298.09,369.77 297.55,372.87 297.40,379.00 C297.30,383.68 296.52,389.30 295.69,391.50 C293.62,396.96 292.70,408.70 294.29,409.36 C295.08,409.68 295.15,410.14 294.50,410.67 C293.33,411.64 293.09,453.00 294.25,453.00 C294.66,453.00 295.00,453.67 295.00,454.50 C295.00,455.33 294.57,456.00 294.04,456.00 C293.46,456.00 293.32,458.58 293.68,462.50 C294.12,467.18 293.96,469.00 293.11,469.00 C292.44,469.00 292.77,469.92 293.88,471.10 C296.27,473.67 298.28,484.40 297.40,489.91 C296.92,492.93 297.26,494.89 298.80,497.84 C299.92,500.00 301.04,504.28 301.28,507.36 C301.53,510.44 302.30,513.65 302.99,514.49 C303.69,515.33 304.65,518.12 305.13,520.68 C305.61,523.25 306.68,526.09 307.50,527.00 C308.33,527.91 309.00,530.03 309.00,531.71 C309.00,533.38 309.67,535.32 310.50,536.00 C311.33,536.68 312.00,537.90 312.00,538.70 C312.00,541.54 326.24,566.50 329.56,569.50 C330.17,570.05 332.43,572.75 334.58,575.49 C338.77,580.84 346.32,588.49 352.52,593.70 C354.61,595.46 356.44,597.93 356.58,599.20 C356.68,600.15 356.80,601.04 356.87,601.48 L 353.00 598.59 C342.58,590.81 328.39,575.18 319.79,562.00 C309.29,545.92 299.77,520.13 295.05,495.00 C285.89,446.25 288.78,384.57 302.22,342.00 C318.11,291.66 345.39,253.85 383.28,229.67 C401.33,218.16 428.93,207.32 449.00,203.87 C452.39,203.29 455.33,202.79 457.95,202.36 ZM 564.42 500.69 C563.83,500.01 563.53,498.90 563.76,498.23 C563.93,497.70 563.62,497.35 563.03,497.18 C575.72,499.14 588.09,496.95 601.79,490.37 C619.67,481.79 632.42,465.36 637.04,444.95 C639.46,434.26 639.45,428.72 636.99,417.63 C634.49,406.28 631.26,399.29 624.37,390.29 C614.29,377.12 598.84,368.00 582.54,365.59 C567.39,363.35 549.12,366.53 539.20,373.14 C536.83,374.71 534.66,376.00 534.36,376.00 C534.06,376.00 531.38,378.09 528.39,380.64 C517.41,390.02 509.52,403.33 506.62,417.36 C504.30,428.61 504.44,434.19 507.42,449.59 C508.36,454.42 515.26,466.97 520.43,473.21 C529.95,484.72 542.19,492.27 557.50,496.06 C559.11,496.46 560.71,496.79 562.31,497.06 C560.96,496.98 558.99,497.45 557.68,498.44 C556.42,499.40 555.03,499.56 553.18,498.98 C548.68,497.57 538.44,493.05 539.50,492.95 C540.05,492.90 538.70,492.00 536.50,490.94 C531.45,488.53 528.91,486.90 527.20,485.00 C526.00,483.67 525.93,483.67 526.52,485.00 C527.21,486.54 519.71,478.81 514.72,472.83 C513.18,471.00 510.77,467.14 509.35,464.25 C507.93,461.36 506.48,459.00 506.13,459.00 C505.78,459.00 505.40,457.99 505.29,456.75 C504.90,452.70 504.43,451.23 502.98,449.47 C501.97,448.26 501.62,445.75 501.82,441.12 C502.21,432.01 502.21,428.48 501.84,421.39 C501.66,417.87 502.00,414.69 502.65,413.89 C503.26,413.13 504.10,410.92 504.51,409.00 C505.39,404.88 512.39,392.05 514.75,390.25 C515.65,389.56 516.01,389.00 515.56,389.00 C515.10,389.00 516.25,387.60 518.11,385.90 C519.98,384.19 520.83,383.14 520.00,383.56 C519.17,383.98 519.59,383.12 520.92,381.66 C522.26,380.20 523.96,379.00 524.72,379.00 C526.23,379.00 527.94,377.79 531.87,373.91 C535.81,370.03 547.10,364.40 552.38,363.67 C554.94,363.32 558.33,362.36 559.92,361.54 C563.34,359.77 581.97,359.91 584.16,361.71 C584.90,362.32 587.30,363.12 589.50,363.49 C595.29,364.46 606.06,369.09 605.32,370.29 C604.97,370.86 605.18,371.00 605.82,370.61 C606.44,370.23 607.94,371.06 609.15,372.46 C610.37,373.86 611.75,375.00 612.22,375.00 C615.25,375.00 630.00,389.25 630.00,392.18 C630.00,393.13 630.56,394.26 631.25,394.70 C633.04,395.84 638.05,406.11 637.37,407.22 C637.05,407.73 637.74,409.15 638.89,410.38 C640.53,412.13 641.05,414.12 641.24,419.47 C641.42,424.26 641.12,426.45 640.25,426.75 C639.56,426.98 639.01,427.92 639.02,428.83 C639.03,430.27 639.16,430.30 640.00,429.00 C640.73,427.86 640.97,428.30 640.98,430.81 C640.99,432.76 640.59,433.87 640.00,433.50 C639.45,433.16 639.00,433.77 639.00,434.86 C639.00,435.94 639.53,437.01 640.18,437.23 C641.86,437.79 641.41,448.72 639.60,451.49 C638.80,452.71 637.84,455.35 637.46,457.35 C637.09,459.36 636.46,461.00 636.07,461.00 C635.69,461.00 634.62,462.58 633.70,464.50 C632.78,466.42 631.58,468.00 631.02,468.00 C630.46,468.00 630.00,468.82 630.00,469.83 C630.00,472.17 618.07,484.03 613.73,486.00 C610.51,487.46 608.68,488.78 605.20,492.15 C602.81,494.46 591.31,499.12 587.77,499.23 C586.14,499.27 584.45,498.72 584.01,498.01 C583.54,497.26 582.47,496.99 581.46,497.38 C580.50,497.75 579.98,498.32 580.31,498.64 C580.64,498.97 580.28,499.86 579.52,500.62 C577.76,502.39 565.95,502.44 564.42,500.69 ZM 537.49 650.92 C538.32,650.04 539.00,648.86 539.00,648.28 C539.00,647.70 540.14,646.48 541.53,645.57 C542.92,644.66 543.79,643.47 543.46,642.93 C543.12,642.39 543.28,642.07 543.80,642.23 C544.32,642.38 546.37,641.04 548.35,639.25 C550.33,637.46 552.75,635.84 553.73,635.65 C554.70,635.46 556.17,635.01 557.00,634.65 C557.83,634.29 562.59,632.68 567.59,631.07 C572.59,629.45 578.58,627.15 580.89,625.94 C583.20,624.74 585.36,624.03 585.69,624.36 C586.03,624.70 586.81,624.28 587.42,623.44 C588.03,622.60 589.78,621.78 591.29,621.62 C592.80,621.46 594.59,620.66 595.27,619.84 C597.16,617.56 601.71,615.00 603.87,615.00 C605.32,615.00 605.68,614.49 605.29,613.00 C604.78,611.05 603.93,611.00 569.81,611.00 C540.85,611.00 534.61,611.24 533.43,612.43 C532.28,613.58 532.01,618.07 532.03,635.68 L 532.07 657.50 L 534.02 655.00 C535.10,653.62 536.66,651.79 537.49,650.92 ZM 442.77 632.75 L 442.50 611.50 L 406.50 611.26 C382.80,611.10 371.01,611.35 372.00,611.99 C372.83,612.53 373.18,612.98 372.79,612.98 C371.72,613.01 376.33,617.56 377.50,617.63 C379.89,617.79 397.96,627.26 397.45,628.09 C397.14,628.59 398.61,629.00 400.72,629.00 C402.83,629.00 405.44,629.62 406.53,630.37 C407.61,631.13 410.37,632.06 412.66,632.45 C414.94,632.83 417.64,633.77 418.66,634.54 C419.67,635.31 421.24,635.95 422.14,635.97 C423.05,635.99 425.23,637.35 427.00,639.00 C428.76,640.64 430.55,641.78 430.97,641.52 C431.39,641.26 432.58,642.04 433.62,643.26 C435.47,645.44 435.47,645.45 433.50,644.12 C432.40,643.38 433.12,644.29 435.10,646.14 C437.08,647.99 439.23,650.51 439.88,651.75 C442.57,656.85 443.04,653.79 442.77,632.75 ZM 679.33 359.07 C679.09,359.05 678.79,359.04 678.40,359.03 C675.24,358.98 673.21,356.02 672.78,350.84 C672.56,348.27 671.87,345.55 671.24,344.79 C670.61,344.03 669.78,341.48 669.41,339.14 C669.03,336.80 667.89,333.24 666.86,331.23 C665.84,329.22 665.00,326.86 665.00,325.99 C665.00,325.11 664.61,323.97 664.13,323.45 C663.65,322.93 662.47,320.36 661.50,317.75 C660.52,315.14 659.34,313.00 658.86,313.00 C658.39,313.00 658.00,311.94 658.00,310.65 C658.00,309.37 657.10,307.49 655.99,306.49 C654.89,305.50 654.20,304.46 654.47,304.20 C655.10,303.57 649.14,292.72 647.65,291.77 C647.02,291.36 646.82,291.02 647.22,291.02 C647.83,291.00 644.86,285.89 642.26,282.50 C638.03,276.95 635.50,273.41 635.48,273.00 C635.46,272.73 633.75,270.70 631.67,268.50 C629.59,266.30 627.21,263.22 626.37,261.66 C625.54,260.09 624.61,259.06 624.31,259.36 C623.63,260.04 617.00,253.09 617.00,251.69 C617.00,251.13 616.73,250.94 616.40,251.27 C616.07,251.60 614.26,250.32 612.37,248.43 C610.48,246.54 608.47,245.00 607.91,245.00 C607.34,245.00 607.13,244.60 607.44,244.10 C607.74,243.61 607.20,242.91 606.24,242.54 C605.28,242.17 604.43,242.01 604.35,242.19 C604.28,242.36 603.27,241.65 602.13,240.62 C600.98,239.58 600.24,238.42 600.48,238.03 C600.72,237.65 600.37,237.33 599.71,237.32 C599.04,237.32 595.62,235.44 592.09,233.16 C588.57,230.87 585.28,229.00 584.79,229.00 C584.29,229.00 584.17,228.54 584.52,227.98 C584.86,227.41 584.78,227.07 584.32,227.21 C582.86,227.68 577.01,224.80 577.57,223.88 C577.87,223.40 577.53,222.95 576.81,222.88 C572.42,222.50 568.85,221.05 569.54,219.93 C570.14,218.97 568.94,218.67 565.48,218.93 C564.37,219.01 562.56,218.23 561.44,217.20 C560.33,216.16 557.95,215.27 556.14,215.22 C554.34,215.17 552.18,214.56 551.35,213.87 C549.75,212.54 548.99,212.34 542.29,211.39 C539.40,210.98 537.89,210.21 537.48,208.94 C537.02,207.48 536.42,207.27 534.61,207.96 C533.36,208.43 531.72,208.44 530.96,207.98 C530.21,207.51 529.22,207.36 528.76,207.65 C528.30,207.93 526.20,207.87 524.09,207.52 C521.36,207.05 519.94,206.17 519.15,204.43 C518.03,201.98 513.54,200.93 512.83,202.96 C512.30,204.52 506.46,204.81 491.00,204.08 C483.02,203.70 476.00,203.75 475.39,204.20 C473.99,205.23 463.61,204.13 463.17,202.91 C462.99,202.43 461.68,202.03 460.21,202.00 C471.79,200.18 476.90,199.92 488.58,199.92 C553.74,199.89 612.26,230.16 646.26,281.46 C656.79,297.37 658.67,301.04 670.07,328.00 C672.56,333.90 677.93,352.01 679.33,359.07 ZM 610.59 446.39 C603.78,449.62 595.56,447.83 590.70,442.06 C587.31,438.02 586.64,435.36 587.23,428.25 C587.66,423.11 588.08,422.26 591.95,418.82 C599.56,412.07 609.38,412.60 616.25,420.14 C619.82,424.06 620.00,424.59 620.00,431.09 C620.00,437.27 619.71,438.26 616.99,441.35 C615.34,443.24 612.46,445.50 610.59,446.39 ZM 618.67 600.59 C618.07,599.03 620.92,596.00 623.00,596.00 C623.73,596.00 624.05,595.72 623.71,595.38 C623.01,594.68 625.40,592.00 626.73,592.00 C627.73,592.00 637.58,581.84 637.53,580.85 C637.47,579.59 641.28,576.06 642.13,576.58 C642.90,577.06 643.20,576.21 642.90,574.41 C642.85,574.08 643.91,572.62 645.26,571.16 C648.51,567.63 654.00,559.41 654.00,558.07 C654.00,557.48 654.35,557.00 654.77,557.00 C656.16,557.00 669.00,530.49 669.00,527.61 C669.00,526.98 669.81,524.90 670.80,522.99 C671.80,521.07 672.73,517.70 672.88,515.50 C673.21,510.76 675.36,507.01 677.77,506.98 C678.83,506.98 679.08,506.68 678.41,506.23 C677.81,505.83 677.05,504.42 676.72,503.10 C675.94,500.02 677.66,490.83 679.20,489.87 C679.97,489.40 680.44,485.52 680.54,478.82 C680.74,465.91 681.98,454.00 683.13,454.00 C683.61,454.00 684.00,446.12 684.00,436.50 C684.00,421.61 684.22,419.00 685.50,419.00 C686.00,419.00 686.45,418.83 686.72,418.58 C687.40,436.79 687.10,455.48 685.55,469.00 C683.29,488.61 682.94,491.11 681.46,497.50 C680.70,500.80 679.88,504.67 679.63,506.11 C677.84,516.50 669.20,540.26 663.31,551.00 C653.41,569.02 643.26,581.84 628.68,594.73 L 620.50 601.96 L 553.59 601.95 C608.23,601.85 619.03,601.51 618.67,600.59 ZM 605.50 444.00 C605.84,443.45 606.97,443.00 608.02,443.00 C609.07,443.00 610.38,442.44 610.95,441.75 C616.56,434.90 616.73,434.53 616.08,430.50 C615.35,425.89 612.08,420.02 610.25,420.01 C609.56,420.00 609.05,419.66 609.12,419.25 C609.52,416.72 608.67,416.36 603.36,416.80 C599.42,417.13 597.09,417.90 595.61,419.37 C593.18,421.80 591.00,425.64 591.00,427.53 C591.00,428.25 590.44,429.02 589.75,429.25 C588.76,429.58 588.75,430.18 589.71,432.09 C590.37,433.41 591.58,436.18 592.40,438.23 C593.68,441.46 594.42,442.04 597.94,442.61 C600.17,442.96 602.00,443.65 602.00,444.13 C602.00,445.33 604.74,445.23 605.50,444.00 ZM 531.00 870.15 C531.00,869.69 530.30,867.90 529.44,866.17 C528.39,864.08 527.75,859.33 527.50,851.87 C527.29,845.72 526.69,840.42 526.17,840.10 C524.73,839.19 522.90,825.51 523.62,820.99 C524.00,818.59 524.80,817.00 525.63,817.00 C526.20,817.00 526.62,816.50 526.83,815.61 C528.38,828.53 530.22,842.20 532.14,854.82 C533.25,862.15 533.91,868.79 533.61,869.57 C533.15,870.78 526.20,871.00 488.59,871.00 C511.94,871.00 531.00,870.62 531.00,870.15 ZM 686.67 417.38 C686.40,417.15 685.97,417.00 685.50,417.00 C684.45,417.00 684.00,415.94 684.00,413.50 C684.00,411.58 683.61,410.00 683.13,410.00 C681.66,410.00 679.87,389.01 680.95,384.50 C681.56,381.96 681.56,380.38 680.96,380.17 C680.43,379.98 680.00,379.20 680.00,378.42 C680.00,377.64 679.61,377.00 679.13,377.00 C677.97,377.00 676.09,367.23 676.66,364.12 C676.90,362.76 677.87,361.06 678.80,360.35 C679.07,360.15 679.30,359.97 679.47,359.83 C679.48,359.89 679.49,359.94 679.50,360.00 C679.82,361.92 680.50,365.08 681.00,367.00 C683.87,378.00 685.87,397.32 686.67,417.38 ZM 526.31 811.15 C526.21,811.05 526.11,811.00 526.00,811.00 C522.28,811.00 521.10,808.84 520.19,800.34 C519.04,789.68 519.78,778.00 521.61,778.00 C522.27,778.00 522.76,777.34 522.93,776.28 C523.54,785.43 524.75,797.75 526.31,811.15 ZM 357.26 601.77 C360.09,601.84 380.54,601.91 410.72,601.95 L 357.50 601.95 L 357.26 601.77 Z" fill="rgba(1,1,1,1)"/>
<path d="M 459.00 1056.79 C453.23,1055.70 447.60,1054.42 446.50,1053.97 C445.40,1053.51 440.90,1051.91 436.50,1050.41 C429.35,1047.99 424.62,1045.63 409.57,1037.00 C407.17,1035.62 402.58,1033.01 399.36,1031.19 C396.14,1029.36 391.70,1026.81 389.50,1025.50 C387.30,1024.20 384.38,1022.49 383.00,1021.72 C374.75,1017.05 362.28,1009.84 361.00,1008.99 C360.17,1008.44 358.83,1007.69 358.00,1007.32 C356.81,1006.79 343.62,999.14 335.00,993.97 C334.17,993.48 331.25,991.79 328.50,990.22 C325.75,988.65 317.42,983.83 310.00,979.52 C302.58,975.21 295.15,970.97 293.50,970.09 C291.85,969.22 290.28,968.24 290.00,967.92 C289.73,967.60 288.15,966.66 286.50,965.82 C284.85,964.98 280.58,962.58 277.00,960.49 C264.73,953.32 262.49,952.05 257.50,949.42 C254.75,947.96 251.07,945.70 249.32,944.39 C247.57,943.07 245.94,942.00 245.69,942.00 C245.28,942.00 228.10,932.38 220.80,928.06 C218.98,926.99 212.55,923.28 206.50,919.82 C200.45,916.36 194.74,913.08 193.80,912.52 C185.21,907.37 171.11,899.34 169.52,898.70 C168.43,898.26 166.86,897.31 166.02,896.59 C165.18,895.87 161.80,893.83 158.50,892.05 C155.20,890.27 151.82,888.23 151.00,887.50 C150.18,886.78 147.42,885.13 144.89,883.84 C135.99,879.32 129.88,875.90 124.22,872.26 C121.07,870.25 116.70,867.63 114.50,866.44 C112.30,865.25 108.70,863.24 106.50,861.96 C104.30,860.68 101.02,858.86 99.20,857.90 C97.39,856.95 95.37,855.75 94.70,855.23 C94.04,854.71 90.82,852.84 87.54,851.06 C82.01,848.07 76.17,844.34 75.00,843.05 C74.72,842.74 72.49,841.15 70.04,839.50 C60.04,832.79 46.21,816.85 36.20,800.52 C32.10,793.83 24.95,779.69 24.58,777.52 C24.48,776.96 23.92,775.60 23.34,774.50 C21.49,771.04 17.31,755.87 15.61,746.50 C14.15,738.38 13.99,717.70 13.99,534.92 C14.00,337.71 14.05,332.06 15.97,321.42 C17.93,310.57 19.91,303.38 22.60,297.35 C23.37,295.62 24.00,293.69 24.00,293.07 C24.00,291.00 35.55,269.60 40.50,262.50 C47.04,253.11 57.77,240.30 62.70,236.00 C72.68,227.29 77.30,224.18 97.00,213.01 C103.88,209.11 111.30,204.81 113.50,203.45 C115.70,202.09 119.97,199.62 123.00,197.96 C126.03,196.29 130.30,193.84 132.50,192.51 C134.70,191.18 137.18,189.77 138.00,189.36 C138.82,188.96 142.20,187.00 145.50,185.00 C148.80,183.00 152.18,181.06 153.00,180.68 C153.82,180.29 155.85,179.15 157.50,178.13 C159.15,177.12 162.07,175.38 164.00,174.28 C165.93,173.17 169.30,171.20 171.50,169.89 C176.22,167.08 180.19,164.87 185.00,162.40 C186.93,161.41 188.73,160.30 189.00,159.93 C189.27,159.56 191.75,158.05 194.50,156.57 C197.25,155.08 201.30,152.80 203.50,151.50 C208.29,148.66 209.63,147.89 222.50,140.58 C228.00,137.45 234.75,133.52 237.50,131.83 C240.25,130.14 244.67,127.58 247.33,126.13 C249.99,124.68 253.81,122.52 255.83,121.31 C257.85,120.11 261.98,117.75 265.00,116.07 C268.02,114.39 272.30,111.91 274.50,110.56 C276.70,109.21 279.62,107.47 281.00,106.69 C282.38,105.91 288.00,102.67 293.50,99.49 C299.00,96.31 304.85,93.03 306.50,92.20 C308.15,91.38 310.17,90.15 311.00,89.47 C311.83,88.78 314.89,86.94 317.80,85.36 C320.72,83.79 323.87,82.04 324.80,81.49 C333.21,76.47 341.23,71.82 344.83,69.86 C349.42,67.36 351.38,66.23 363.75,58.92 C368.01,56.40 372.17,54.03 373.00,53.65 C373.83,53.27 376.30,51.87 378.50,50.54 C380.70,49.21 384.98,46.73 388.00,45.03 C391.02,43.32 395.16,40.93 397.19,39.72 C399.22,38.50 404.39,35.48 408.69,33.00 C412.99,30.53 417.40,27.96 418.50,27.30 C428.14,21.46 448.02,14.35 458.74,12.89 C476.91,10.43 485.38,9.85 495.18,10.41 C522.36,11.97 543.57,17.96 561.50,29.15 C563.70,30.52 566.17,31.95 567.00,32.33 C567.83,32.70 570.57,34.24 573.10,35.75 C575.63,37.26 581.63,40.75 586.43,43.50 C591.23,46.25 595.91,48.95 596.83,49.50 C597.75,50.05 601.20,52.04 604.50,53.92 C614.75,59.75 637.42,72.97 639.00,74.03 C639.83,74.58 641.62,75.60 643.00,76.28 C645.03,77.29 654.29,82.64 664.16,88.50 C665.09,89.05 669.77,91.75 674.57,94.50 C679.37,97.25 685.37,100.72 687.90,102.20 C690.43,103.69 693.62,105.53 695.00,106.29 C696.38,107.05 699.30,108.72 701.50,109.99 C703.70,111.27 706.40,112.81 707.50,113.42 C708.60,114.03 710.62,115.25 712.00,116.13 C714.44,117.68 734.21,129.00 739.73,132.00 C741.26,132.83 746.32,135.76 750.98,138.50 C755.64,141.25 760.37,144.04 761.48,144.69 C762.59,145.34 765.08,146.75 767.00,147.81 C771.16,150.11 780.63,155.61 785.80,158.73 C787.84,159.96 790.12,161.26 790.88,161.64 C792.58,162.47 803.95,169.04 823.00,180.17 C830.97,184.84 838.17,188.95 839.00,189.32 C839.83,189.69 845.00,192.67 850.50,195.93 C856.00,199.20 864.33,203.99 869.00,206.57 C873.67,209.16 878.17,211.84 879.00,212.52 C879.83,213.20 883.42,215.32 887.00,217.23 C899.47,223.89 905.58,228.44 916.84,239.43 C926.35,248.71 932.96,256.77 938.50,265.83 C939.05,266.73 940.68,269.27 942.12,271.48 C947.63,279.92 954.41,296.05 958.52,310.50 C962.95,326.07 962.98,327.81 962.98,535.00 C962.98,741.75 962.93,744.60 958.60,758.25 C957.77,760.86 957.28,763.00 957.50,763.00 C958.30,763.00 952.78,776.64 947.82,786.96 C937.45,808.49 921.20,828.76 904.00,841.61 C898.63,845.63 887.51,852.55 879.50,856.87 C877.30,858.05 874.83,859.44 874.00,859.96 C873.17,860.47 869.12,862.81 865.00,865.16 C860.88,867.51 857.28,869.67 857.00,869.97 C856.72,870.26 854.74,871.40 852.58,872.50 C850.43,873.60 847.49,875.17 846.06,876.00 C842.58,878.00 830.80,884.89 825.53,888.00 C823.20,889.38 817.35,892.75 812.53,895.50 C807.70,898.25 801.85,901.62 799.53,903.00 C797.20,904.38 791.35,907.75 786.53,910.50 C781.70,913.25 775.83,916.62 773.48,918.00 C771.13,919.38 763.42,923.79 756.35,927.81 C749.28,931.83 737.42,938.70 730.00,943.07 C722.58,947.45 714.47,952.15 712.00,953.53 C709.53,954.91 705.01,957.49 701.96,959.27 C698.92,961.05 692.92,964.53 688.64,967.00 C684.37,969.47 680.10,971.95 679.17,972.50 C677.58,973.44 659.15,984.02 651.15,988.58 C647.87,990.45 612.68,1010.83 609.00,1013.00 C608.17,1013.48 603.26,1016.38 598.08,1019.44 C592.90,1022.50 588.11,1025.00 587.45,1025.00 C586.79,1025.00 585.64,1025.73 584.91,1026.61 C584.17,1027.50 582.88,1028.51 582.03,1028.86 C581.19,1029.21 575.40,1032.43 569.16,1036.00 C557.27,1042.81 546.57,1048.52 544.01,1049.42 C533.79,1053.00 528.64,1054.41 518.06,1056.52 C501.69,1059.78 475.40,1059.90 459.00,1056.79 ZM 533.61 869.57 C533.91,868.79 533.25,862.15 532.14,854.82 C527.92,827.05 524.09,794.22 522.88,775.50 C522.35,767.25 521.95,726.19 522.00,684.25 L 522.08 608.00 L 487.90 608.00 L 453.72 608.00 L 454.23 682.25 C454.73,753.64 454.18,781.33 451.94,798.50 C451.37,802.90 450.48,810.78 449.97,816.00 C449.46,821.22 448.36,830.00 447.54,835.50 C444.35,856.81 442.92,869.06 443.51,870.01 C443.89,870.64 460.36,871.00 488.59,871.00 C526.20,871.00 533.15,870.78 533.61,869.57 ZM 532.59 668.24 C535.55,660.23 541.59,650.75 547.17,645.35 C552.07,640.61 553.62,639.82 566.49,635.48 C586.08,628.89 609.35,616.80 615.47,610.03 L 617.31 608.00 L 573.15 608.00 L 529.00 608.00 L 529.00 641.06 C529.00,660.96 529.37,673.89 529.92,673.55 C530.43,673.24 531.63,670.85 532.59,668.24 ZM 448.00 640.50 L 448.00 608.00 L 403.25 608.01 L 358.50 608.02 L 361.96 610.75 C369.84,616.95 385.23,625.61 397.04,630.47 C405.54,633.98 420.41,639.00 422.27,639.00 C423.08,639.00 426.84,642.26 430.63,646.25 C435.56,651.45 438.71,655.97 441.76,662.23 C444.09,667.03 446.00,671.42 446.00,671.98 C446.00,672.54 446.45,673.00 447.00,673.00 C447.65,673.00 448.00,661.50 448.00,640.50 ZM 628.68 594.73 C643.26,581.84 653.41,569.02 663.31,551.00 C669.20,540.26 677.84,516.50 679.63,506.11 C679.88,504.67 680.70,500.80 681.46,497.50 C682.94,491.11 683.29,488.61 685.55,469.00 C688.84,440.27 686.52,388.20 681.00,367.00 C680.50,365.08 679.82,361.92 679.50,360.00 C678.45,353.77 672.68,334.18 670.07,328.00 C658.67,301.04 656.79,297.37 646.26,281.46 C612.26,230.16 553.74,199.89 488.58,199.92 C473.70,199.92 469.50,200.34 449.00,203.87 C428.93,207.32 401.33,218.16 383.28,229.67 C345.39,253.85 318.11,291.66 302.22,342.00 C288.78,384.57 285.89,446.25 295.05,495.00 C299.77,520.13 309.29,545.92 319.79,562.00 C328.39,575.18 342.58,590.81 353.00,598.59 L 357.50 601.95 L 489.00 601.95 L 620.50 601.96 L 628.68 594.73 ZM 557.50 496.06 C542.19,492.27 529.95,484.72 520.43,473.21 C515.26,466.97 508.36,454.42 507.42,449.59 C504.44,434.19 504.30,428.61 506.62,417.36 C509.52,403.33 517.41,390.02 528.39,380.64 C531.38,378.09 534.06,376.00 534.36,376.00 C534.66,376.00 536.83,374.71 539.20,373.14 C549.12,366.53 567.39,363.35 582.54,365.59 C598.84,368.00 614.29,377.12 624.37,390.29 C631.26,399.29 634.49,406.28 636.99,417.63 C639.45,428.72 639.46,434.26 637.04,444.95 C632.42,465.36 619.67,481.79 601.79,490.37 C586.11,497.90 572.16,499.69 557.50,496.06 ZM 610.59 446.39 C612.46,445.50 615.34,443.24 616.99,441.35 C619.71,438.26 620.00,437.27 620.00,431.09 C620.00,424.59 619.82,424.06 616.25,420.14 C609.38,412.60 599.56,412.07 591.95,418.82 C588.08,422.26 587.66,423.11 587.23,428.25 C586.64,435.36 587.31,438.02 590.70,442.06 C595.56,447.83 603.78,449.62 610.59,446.39 Z" fill="rgba(254,254,254,1)"/>
</g>
</svg>