<svg xmlns="http://www.w3.org/2000/svg" width="978" height="1072" viewBox="0 0 978 1072">
<g>
<path d="M 459.00 1056.79 C453.23,1055.70 447.60,1054.39 446.50,1053.90 C445.40,1053.40 441.58,1052.06 438.00,1050.90 C434.42,1049.75 429.48,1047.80 427.00,1046.56 C418.39,1042.26 415.50,1040.65 414.96,1039.87 C414.67,1039.43 412.65,1038.33 410.46,1037.43 C408.28,1036.52 406.27,1035.43 406.00,1035.02 C405.73,1034.60 403.25,1033.04 400.50,1031.55 C397.75,1030.05 393.25,1027.53 390.50,1025.94 C387.75,1024.35 384.60,1022.57 383.50,1021.99 C382.40,1021.41 379.02,1019.41 376.00,1017.55 C372.98,1015.69 368.48,1013.15 366.00,1011.91 C363.52,1010.66 361.27,1009.30 360.98,1008.88 C360.69,1008.47 359.34,1007.64 357.98,1007.05 C356.62,1006.46 354.15,1005.08 352.50,1004.00 C350.85,1002.92 348.60,1001.55 347.50,1000.97 C346.40,1000.39 342.80,998.37 339.50,996.49 C336.20,994.61 331.48,991.92 329.00,990.51 C326.52,989.10 323.15,987.06 321.50,985.99 C319.85,984.91 317.82,983.68 316.99,983.26 C312.98,981.25 299.44,973.58 299.00,973.07 C298.46,972.46 295.96,971.00 289.54,967.55 C287.32,966.36 283.60,964.17 281.27,962.69 C278.94,961.21 276.61,960.00 276.09,960.00 C275.57,960.00 274.55,959.44 273.82,958.75 C273.09,958.06 270.70,956.60 268.50,955.50 C266.30,954.40 264.27,953.22 264.00,952.88 C263.73,952.54 261.02,951.02 258.00,949.50 C254.98,947.99 251.15,945.79 249.50,944.62 C246.25,942.32 241.33,939.47 233.50,935.37 C230.75,933.92 228.35,932.35 228.17,931.87 C227.98,931.39 227.39,931.00 226.84,931.00 C226.29,931.00 221.72,928.59 216.67,925.65 C198.55,915.07 194.84,913.00 194.01,913.00 C193.55,913.00 193.02,912.65 192.83,912.22 C192.49,911.41 173.02,900.11 169.53,898.70 C168.44,898.26 167.32,897.53 167.03,897.08 C166.74,896.64 164.70,895.31 162.50,894.14 C160.30,892.97 156.70,890.89 154.50,889.51 C152.30,888.14 148.48,886.00 146.00,884.76 C143.52,883.52 141.27,882.22 141.00,881.88 C140.73,881.54 138.25,880.07 135.50,878.60 C132.75,877.14 129.15,875.07 127.50,873.99 C125.85,872.91 123.60,871.57 122.50,871.00 C121.40,870.43 118.25,868.61 115.50,866.95 C112.75,865.29 109.38,863.39 108.00,862.74 C106.62,862.08 105.28,861.30 105.00,861.01 C104.72,860.72 102.70,859.59 100.50,858.49 C98.30,857.40 96.28,856.22 96.00,855.88 C95.72,855.55 93.70,854.30 91.50,853.12 C84.61,849.43 76.19,844.27 75.00,843.02 C74.72,842.73 72.70,841.27 70.50,839.77 C65.97,836.69 53.13,825.06 54.21,825.02 C54.60,825.01 53.14,823.18 50.96,820.96 C48.78,818.74 47.00,816.46 47.00,815.89 C47.00,815.33 45.42,813.21 43.48,811.18 C41.55,809.16 39.70,806.49 39.37,805.25 C39.05,804.01 38.43,803.00 38.01,803.00 C37.58,803.00 36.96,802.21 36.63,801.25 C36.30,800.29 34.88,797.70 33.48,795.50 C30.35,790.61 25.11,779.25 25.39,777.96 C25.45,777.66 24.78,776.31 23.90,774.96 C22.28,772.47 17.87,759.18 17.44,755.50 C17.31,754.40 16.49,750.03 15.60,745.79 C14.16,738.87 14.00,717.51 14.00,535.13 C14.00,353.95 14.17,331.34 15.58,324.34 C16.45,320.03 17.31,315.53 17.48,314.34 C18.00,310.88 20.98,300.80 22.62,297.00 C23.45,295.08 24.47,292.60 24.88,291.50 C26.90,286.04 35.44,270.00 36.32,270.00 C36.88,270.00 37.05,269.71 36.69,269.36 C36.34,269.01 37.30,267.10 38.83,265.11 C40.35,263.12 42.43,260.15 43.45,258.50 C48.66,250.09 61.74,236.18 70.00,230.26 C73.57,227.70 76.65,225.24 76.83,224.80 C77.02,224.36 77.59,224.00 78.11,224.00 C78.62,224.00 81.35,222.42 84.16,220.49 C86.97,218.55 90.33,216.70 91.63,216.38 C92.93,216.05 94.00,215.43 94.00,214.99 C94.00,214.55 95.24,213.71 96.75,213.12 C100.55,211.64 107.80,207.49 109.91,205.58 C110.87,204.71 112.41,204.00 113.33,204.00 C114.25,204.00 115.00,203.63 115.00,203.19 C115.00,202.74 118.38,200.62 122.50,198.47 C126.62,196.32 130.00,194.21 130.00,193.78 C130.00,193.35 130.84,193.00 131.88,193.00 C132.91,193.00 134.32,192.32 135.00,191.50 C135.68,190.68 136.83,190.00 137.55,190.00 C138.27,190.00 139.46,189.39 140.20,188.66 C141.92,186.94 149.67,182.34 153.25,180.90 C154.76,180.30 156.00,179.40 156.00,178.90 C156.00,178.41 156.69,178.00 157.54,178.00 C158.39,178.00 160.05,177.10 161.23,176.00 C162.41,174.90 164.19,174.00 165.19,174.00 C166.18,174.00 167.00,173.62 167.00,173.16 C167.00,172.70 168.79,171.46 170.99,170.41 C173.18,169.36 174.98,168.16 174.99,167.75 C174.99,167.34 175.83,167.00 176.85,167.00 C177.86,167.00 179.50,166.10 180.50,165.00 C181.50,163.90 183.14,163.00 184.15,163.00 C185.17,163.00 186.00,162.55 186.00,162.00 C186.00,161.45 186.64,161.00 187.43,161.00 C188.21,161.00 189.45,160.42 190.18,159.71 C190.91,159.00 193.46,157.41 195.87,156.17 C198.27,154.93 200.89,153.26 201.69,152.46 C202.49,151.66 203.73,151.00 204.45,151.00 C205.17,151.00 206.32,150.32 207.00,149.50 C207.68,148.68 209.09,148.00 210.12,148.00 C211.16,148.00 212.00,147.56 212.00,147.02 C212.00,146.48 213.12,145.76 214.50,145.41 C215.88,145.07 217.00,144.48 217.00,144.11 C217.00,143.74 218.24,142.92 219.75,142.28 C221.26,141.64 224.75,139.74 227.50,138.05 C230.25,136.36 233.29,134.71 234.25,134.37 C235.21,134.04 236.00,133.40 236.00,132.95 C236.00,132.50 237.57,131.56 239.50,130.86 C241.43,130.17 243.00,129.29 243.00,128.92 C243.00,128.54 243.79,127.96 244.75,127.63 C245.71,127.30 247.85,126.12 249.50,125.02 C251.15,123.92 253.18,122.76 254.00,122.44 C254.82,122.12 256.17,121.43 257.00,120.90 C257.83,120.37 259.29,119.68 260.25,119.35 C261.21,119.03 262.00,118.40 262.00,117.95 C262.00,117.50 263.01,116.82 264.25,116.44 C265.49,116.06 268.44,114.46 270.80,112.87 C273.17,111.29 275.47,110.00 275.93,110.00 C276.38,110.00 277.32,109.32 278.00,108.50 C278.68,107.68 280.09,107.00 281.12,107.00 C282.16,107.00 283.00,106.58 283.00,106.07 C283.00,105.55 284.01,104.82 285.25,104.43 C286.49,104.05 287.73,103.45 288.00,103.12 C288.77,102.17 292.04,100.24 297.00,97.80 C299.48,96.58 302.11,94.99 302.85,94.26 C303.59,93.54 305.62,92.30 307.35,91.51 C309.08,90.72 312.30,88.93 314.50,87.53 C316.70,86.14 319.74,84.50 321.25,83.90 C322.76,83.30 324.00,82.40 324.00,81.90 C324.00,81.41 324.90,81.00 326.00,81.00 C327.10,81.00 328.00,80.58 328.00,80.07 C328.00,79.55 329.01,78.82 330.25,78.43 C331.49,78.05 332.73,77.41 333.00,77.03 C333.68,76.07 343.84,70.28 347.25,68.91 C348.76,68.30 350.00,67.40 350.00,66.90 C350.00,66.41 350.81,66.00 351.80,66.00 C352.79,66.00 354.04,65.56 354.59,65.01 C356.06,63.54 367.11,57.00 368.12,57.00 C368.60,57.00 369.00,56.59 369.00,56.10 C369.00,55.60 370.24,54.71 371.75,54.11 C374.32,53.10 375.23,52.63 379.75,49.97 C380.71,49.40 382.29,48.68 383.25,48.35 C384.21,48.03 385.00,47.45 385.00,47.05 C385.00,46.66 387.25,45.29 390.00,44.00 C392.75,42.71 395.00,41.29 395.00,40.83 C395.00,40.37 395.76,40.00 396.69,40.00 C397.61,40.00 399.30,39.15 400.44,38.11 C402.22,36.48 407.28,33.56 417.80,28.10 C419.28,27.32 420.73,26.39 421.00,26.02 C421.73,25.03 428.12,22.00 429.47,22.00 C430.10,22.00 432.49,21.10 434.76,20.00 C437.04,18.90 439.54,18.00 440.32,18.00 C441.11,18.00 443.81,17.09 446.33,15.97 C448.85,14.86 453.07,13.73 455.71,13.48 C458.34,13.22 462.98,12.47 466.00,11.81 C473.21,10.24 503.87,10.25 511.03,11.83 C514.07,12.50 518.12,13.19 520.03,13.36 C525.94,13.88 552.19,22.81 554.00,24.92 C554.28,25.24 555.40,25.98 556.50,26.57 C565.66,31.49 567.66,32.66 568.82,33.75 C569.55,34.44 570.58,35.00 571.10,35.00 C571.63,35.00 576.54,37.70 582.00,41.00 C587.46,44.30 592.25,47.00 592.64,47.00 C593.03,47.00 594.05,47.63 594.92,48.40 C596.41,49.72 599.18,51.34 608.50,56.35 C610.70,57.53 612.72,58.72 613.00,59.00 C613.77,59.77 617.19,61.81 620.50,63.48 C622.15,64.31 625.08,65.94 627.00,67.09 C628.92,68.25 632.30,70.16 634.50,71.34 C636.70,72.52 639.89,74.50 641.59,75.74 C643.30,76.98 645.01,78.00 645.41,78.00 C645.81,78.00 649.94,80.25 654.60,83.00 C659.25,85.75 663.30,88.00 663.60,88.00 C663.89,88.00 665.61,89.12 667.41,90.50 C669.21,91.88 671.03,93.00 671.46,93.00 C672.08,93.00 685.03,100.34 691.00,104.07 C691.83,104.59 693.17,105.31 694.00,105.68 C694.83,106.05 695.72,106.61 696.00,106.93 C696.28,107.24 698.30,108.43 700.50,109.58 C706.46,112.67 709.44,114.42 710.01,115.17 C710.29,115.54 712.77,117.02 715.51,118.46 C718.25,119.91 722.08,122.01 724.00,123.14 C725.92,124.27 729.30,126.16 731.50,127.35 C733.70,128.53 735.72,129.77 736.00,130.10 C736.28,130.43 738.53,131.83 741.00,133.21 C743.47,134.59 747.30,136.73 749.50,137.96 C751.70,139.19 755.30,141.15 757.50,142.32 C759.70,143.48 762.17,144.97 763.00,145.63 C763.83,146.28 767.20,148.29 770.50,150.08 C773.80,151.88 777.85,154.17 779.50,155.17 C781.15,156.17 783.62,157.52 785.00,158.19 C786.38,158.85 788.17,159.93 789.00,160.59 C789.83,161.26 792.53,162.91 795.00,164.26 C797.47,165.61 801.75,167.95 804.50,169.46 C807.25,170.97 810.21,172.83 811.08,173.60 C811.95,174.37 812.99,175.00 813.39,175.00 C813.98,175.00 832.82,185.64 840.00,190.02 C843.81,192.34 856.56,199.54 857.48,199.88 C858.04,200.09 859.17,200.83 860.00,201.53 C861.40,202.71 865.49,205.08 874.00,209.63 C875.93,210.66 878.86,212.44 880.50,213.60 C882.15,214.75 885.97,217.06 889.00,218.73 C892.03,220.39 896.75,223.02 899.50,224.57 C908.63,229.71 930.40,252.75 938.50,265.85 C939.05,266.74 940.65,269.27 942.06,271.48 C951.48,286.28 959.21,308.44 961.60,327.50 C963.65,343.85 963.60,727.73 961.55,742.50 C959.16,759.65 955.92,770.18 947.91,786.79 C941.80,799.44 935.22,809.47 925.45,821.00 C911.40,837.57 905.05,842.36 873.00,860.54 C864.47,865.38 857.28,869.59 857.00,869.92 C856.72,870.24 854.92,871.28 853.00,872.24 C851.08,873.20 848.83,874.42 848.00,874.96 C846.60,875.86 841.28,878.94 808.50,897.82 C788.58,909.29 778.24,915.26 773.51,918.00 C771.15,919.38 763.42,923.80 756.35,927.83 C749.28,931.86 739.45,937.51 734.50,940.39 C729.55,943.28 717.85,950.06 708.50,955.47 C692.46,964.75 680.62,971.58 624.00,1004.21 C611.08,1011.66 597.80,1019.38 594.50,1021.37 C591.20,1023.37 587.99,1025.00 587.37,1025.00 C586.75,1025.00 585.64,1025.73 584.91,1026.61 C584.17,1027.50 582.88,1028.51 582.03,1028.86 C580.59,1029.46 560.25,1040.97 557.00,1043.03 C554.14,1044.84 540.47,1050.84 535.50,1052.46 C532.75,1053.36 524.90,1055.20 518.06,1056.55 C501.66,1059.78 475.32,1059.89 459.00,1056.79 ZM 354.50 599.81 L 357.50 601.94 L 620.21 602.00 L 627.85 595.61 C635.90,588.89 639.96,584.73 646.52,576.50 C648.71,573.75 651.06,570.91 651.75,570.18 C652.44,569.45 654.21,566.75 655.70,564.18 C657.19,561.61 658.67,559.28 659.00,559.00 C659.32,558.72 662.13,553.33 665.24,547.00 C670.54,536.23 678.26,514.91 679.34,508.08 C679.60,506.42 680.53,501.78 681.41,497.77 C685.57,478.76 687.00,462.03 687.00,432.59 C687.00,402.97 685.63,387.59 681.27,368.00 C680.35,363.88 679.49,359.83 679.36,359.00 C678.33,352.56 670.40,327.32 668.84,325.55 C668.38,325.03 668.00,323.77 668.00,322.75 C668.00,321.73 667.10,319.23 665.99,317.20 C664.89,315.16 662.88,311.02 661.53,308.00 C650.29,282.73 628.75,255.45 607.00,238.91 C598.61,232.54 596.27,231.01 584.50,224.24 C554.12,206.75 511.05,197.54 474.00,200.60 C408.34,206.04 355.44,238.40 323.78,292.51 C315.36,306.89 303.46,334.99 301.47,345.20 C301.28,346.13 300.47,349.28 299.66,352.20 C296.76,362.58 295.07,370.69 292.82,385.00 C290.79,397.92 290.53,403.10 290.52,432.50 C290.50,459.39 290.84,467.82 292.34,478.00 C298.55,520.29 308.78,547.95 327.11,572.00 C332.85,579.55 348.92,595.85 354.50,599.81 ZM 444.29 870.35 C444.96,870.62 465.20,870.88 489.28,870.92 C528.12,870.99 533.13,870.82 533.66,869.44 C533.99,868.58 533.33,861.71 532.19,854.19 C529.19,834.34 527.00,818.30 526.44,812.00 C526.17,808.97 525.22,800.88 524.34,794.00 C523.02,783.68 522.66,766.40 522.27,694.74 L 521.80 607.97 L 454.50 608.50 L 454.46 692.00 C454.42,786.14 454.36,787.28 445.49,851.00 C443.07,868.42 442.98,869.82 444.29,870.35 ZM 584.00 496.57 C560.32,500.86 536.24,492.22 521.07,473.98 C514.38,465.94 511.62,461.02 508.50,451.50 C502.44,433.01 505.00,411.66 515.10,396.42 C523.87,383.21 534.56,374.42 548.84,368.68 C556.26,365.70 556.99,365.60 572.00,365.63 C587.03,365.65 587.74,365.75 595.44,368.81 C605.21,372.70 612.82,377.66 619.31,384.38 C633.99,399.58 640.44,418.60 638.04,439.64 C634.79,468.13 612.73,491.37 584.00,496.57 ZM 442.28 663.23 C444.60,668.04 446.84,671.97 447.25,671.98 C447.66,671.99 448.00,657.60 448.00,640.00 L 448.00 608.00 L 403.50 608.00 C379.02,608.00 359.00,608.19 359.00,608.41 C359.00,609.48 375.13,619.63 384.74,624.61 C396.14,630.51 397.85,631.21 413.33,636.42 C428.26,641.45 434.56,647.28 442.28,663.23 ZM 529.24 641.32 C529.08,660.69 529.34,673.91 529.88,673.58 C530.37,673.27 531.97,670.04 533.43,666.40 C536.93,657.67 542.24,649.47 547.74,644.34 C551.24,641.07 554.06,639.60 560.85,637.53 C572.31,634.02 586.01,628.52 593.87,624.27 C602.91,619.39 613.17,612.66 615.41,610.13 L 617.33 607.98 L 529.50 608.50 ZM 594.19 445.02 C597.50,447.42 599.32,448.00 603.50,448.00 C607.68,448.00 609.50,447.42 612.81,445.02 C618.11,441.19 620.00,437.41 620.00,430.70 C620.00,423.88 617.20,419.36 611.03,416.25 C605.55,413.48 601.10,413.40 596.05,415.97 C584.06,422.09 583.11,436.99 594.19,445.02 Z" fill="rgba(0,0,0,1)"/>
<path d="M 444.29 870.35 C442.98,869.82 443.07,868.42 445.49,851.00 C454.36,787.28 454.42,786.14 454.46,692.00 L 454.50 608.50 L 488.15 608.24 L 521.80 607.97 L 522.27 694.74 C522.66,766.40 523.02,783.68 524.34,794.00 C525.22,800.88 526.17,808.97 526.44,812.00 C527.00,818.30 529.19,834.34 532.19,854.19 C533.33,861.71 533.99,868.58 533.66,869.44 C533.13,870.82 528.12,870.99 489.28,870.92 C465.20,870.88 444.96,870.62 444.29,870.35 ZM 529.24 641.32 L 529.50 608.50 L 573.41 608.24 L 617.33 607.98 L 615.41 610.13 C613.17,612.66 602.91,619.39 593.87,624.27 C586.01,628.52 572.31,634.02 560.85,637.53 C554.06,639.60 551.24,641.07 547.74,644.34 C542.24,649.47 536.93,657.67 533.43,666.40 C531.97,670.04 530.37,673.27 529.88,673.58 C529.34,673.91 529.08,660.69 529.24,641.32 ZM 442.28 663.23 C434.56,647.28 428.26,641.45 413.33,636.42 C397.85,631.21 396.14,630.51 384.74,624.61 C375.13,619.63 359.00,609.48 359.00,608.41 C359.00,608.19 379.02,608.00 403.50,608.00 L 448.00 608.00 L 448.00 640.00 C448.00,657.60 447.66,671.99 447.25,671.98 C446.84,671.97 444.60,668.04 442.28,663.23 ZM 354.50 599.81 C348.92,595.85 332.85,579.55 327.11,572.00 C308.78,547.95 298.55,520.29 292.34,478.00 C290.84,467.82 290.50,459.39 290.52,432.50 C290.53,403.10 290.79,397.92 292.82,385.00 C295.07,370.69 296.76,362.58 299.66,352.20 C300.47,349.28 301.28,346.13 301.47,345.20 C303.46,334.99 315.36,306.89 323.78,292.51 C355.44,238.40 408.34,206.04 474.00,200.60 C511.05,197.54 554.12,206.75 584.50,224.24 C596.27,231.01 598.61,232.54 607.00,238.91 C628.75,255.45 650.29,282.73 661.53,308.00 C662.88,311.02 664.89,315.16 665.99,317.20 C667.10,319.23 668.00,321.73 668.00,322.75 C668.00,323.77 668.38,325.03 668.84,325.55 C670.40,327.32 678.33,352.56 679.36,359.00 C679.49,359.83 680.35,363.88 681.27,368.00 C685.63,387.59 687.00,402.97 687.00,432.59 C687.00,462.03 685.57,478.76 681.41,497.77 C680.53,501.78 679.60,506.42 679.34,508.08 C678.26,514.91 670.54,536.23 665.24,547.00 C662.13,553.33 659.32,558.72 659.00,559.00 C658.67,559.28 657.19,561.61 655.70,564.18 C654.21,566.75 652.44,569.45 651.75,570.18 C651.06,570.91 648.71,573.75 646.52,576.50 C639.96,584.73 635.90,588.89 627.85,595.61 L 620.21 602.00 L 488.85 601.97 L 357.50 601.94 L 354.50 599.81 ZM 584.00 496.57 C612.73,491.37 634.79,468.13 638.04,439.64 C640.44,418.60 633.99,399.58 619.31,384.38 C612.82,377.66 605.21,372.70 595.44,368.81 C587.74,365.75 587.03,365.65 572.00,365.63 C556.99,365.60 556.26,365.70 548.84,368.68 C534.56,374.42 523.87,383.21 515.10,396.42 C505.00,411.66 502.44,433.01 508.50,451.50 C511.62,461.02 514.38,465.94 521.07,473.98 C536.24,492.22 560.32,500.86 584.00,496.57 ZM 594.19 445.02 C583.11,436.99 584.06,422.09 596.05,415.97 C601.10,413.40 605.55,413.48 611.03,416.25 C617.20,419.36 620.00,423.88 620.00,430.70 C620.00,437.41 618.11,441.19 612.81,445.02 C609.50,447.42 607.68,448.00 603.50,448.00 C599.32,448.00 597.50,447.42 594.19,445.02 Z" fill="rgba(254,254,254,1)"/>
</g>
</svg>